<?xml version="1.0" encoding="UTF-8"?>
<svg id="Layer_1" data-name="Layer 1" xmlns="http://www.w3.org/2000/svg" viewBox="0 0 524.19 236.63">
  <defs>
    <style>
      .cls-1 {
        fill: #000;
        stroke-width: 0px;
      }

      .cls-2 {
        fill: #fff;
        stroke: #000;
        stroke-miterlimit: 10;
      }
    </style>
  </defs>
  <path class="cls-1" d="M67.15,99.13C30.06,99.13,0,125.33,0,157.65s30.06,58.51,67.15,58.51,67.14-26.19,67.14-58.51-30.06-58.52-67.14-58.52ZM67.15,180.17c-14.64,0-26.5-10.08-26.5-22.52s11.86-22.52,26.5-22.52,26.49,10.08,26.49,22.52-11.86,22.52-26.49,22.52Z"/>
  <path class="cls-1" d="M103.37,221.26l-14.76-13.19c-5.34-4.77-5.8-12.97-1.03-18.31l6.9-7.72c4.77-5.34,12.97-5.8,18.31-1.03l15.23,13.62c5.57,4.98,5.79,13.63.48,18.89l-7.38,7.3c-4.87,4.82-12.66,5.02-17.77.45Z"/>
  <path class="cls-1" d="M215.46,82.41c-40.06,0-72.54,32.48-72.54,72.54s32.48,72.54,72.54,72.54,72.54-32.48,72.54-72.54-32.48-72.54-72.54-72.54ZM269.42,186.46c-.96,2.26-1.83,5.29-4.18,9.54-15.17,27.44-48.6,25.07-49.78,25.57-1.18-.5-34.61,1.87-49.78-25.57-2.35-4.25-3.22-7.28-4.18-9.54-.76-1.81-2.1-6.62-2.29-9.84-.46-7.89,6.16-6.11,11.33-2.03,2.88,2.28,11.79,8.2,12.35,8.21,0,0,8.57,6.14,32.57,5.74,24,.4,32.57-5.74,32.57-5.74.56-.01,9.47-5.93,12.35-8.21,5.17-4.08,11.79-5.86,11.33,2.03-.19,3.22-1.53,8.03-2.29,9.84Z"/>
  <path class="cls-1" d="M185.82,96.89l-5.67,2.7c-3.14,1.5-6.9.32-8.63-2.69l-43.44-75.61c-1.68-2.93-.9-6.66,1.81-8.67l15.27-11.3c3.5-2.59,8.51-1.17,10.14,2.87l33.84,84.22c1.31,3.26-.14,6.98-3.32,8.49Z"/>
  <path class="cls-1" d="M245.45,97.57l2.84,1.35c3.93,1.87,8.64.4,10.81-3.37l41.92-72.97c2.11-3.67,1.13-8.34-2.27-10.86l-12.32-9.12c-4.39-3.25-10.66-1.47-12.7,3.59l-32.44,80.73c-1.64,4.09.18,8.74,4.15,10.64Z"/>
  <path class="cls-2" d="M266.36,171.11c.73,6.84.5,13.26-.88,19.16-2.72-5.04-5.51-9.65-8.47-13.27,2.14-2.96,5.42-4.76,9.34-5.89Z"/>
  <path class="cls-2" d="M257.02,177c.51,8.26-1.7,17.02-5.62,26.1-2.47-6.42-5.76-12.29-10-17.48,4.68-3.51,9.92-6.35,15.62-8.62Z"/>
  <path class="cls-2" d="M241.39,185.62c.28,9.24-1.44,16.96-5.94,23.02-1.59-7.24-4.14-14.1-7.16-20.58,4.05-1.62,8.44-2.38,13.1-2.44Z"/>
  <path class="cls-2" d="M228.29,188.07c-.37,7.57-3.65,14.65-9.12,21.36-3.91-6.63-6.42-13.61-7.76-20.88,4.71-1.19,10.57-1.09,16.89-.47Z"/>
  <path class="cls-2" d="M211.41,188.54c-4.93,5.85-8.33,12.41-11.08,19.24-3.31-7.6-6.2-15.02-6-20.95,5.43-.4,11.15.11,17.08,1.7Z"/>
  <path class="cls-2" d="M194.33,186.84c-4.83,4.85-8.68,9.95-9.98,14.12-2.65-6.37-4.34-13.53-5.38-20.5,5.02.76,10.09,2.25,15.36,6.38Z"/>
  <path class="cls-2" d="M178.97,180.46c-3.92,4.28-6.63,8.84-8.07,12.87-3.12-5.27-5.03-13.64-6.3-21.96,4.8,1.27,9.59,4.97,14.37,9.09Z"/>
  <path class="cls-2" d="M163.36,191.18c.91,2.8,3.55,6.86,6.57,11.19-1.92-4.85-3.32-9.76-4.15-14.76-.84.93-1.7,2.02-2.42,3.57Z"/>
  <path class="cls-2" d="M169.93,202.38c3.4,4.21,7.05,7.44,10.91,9.88-2.37-6.46-2.78-13.89-2.86-19.9-3.04,2.65-6.62,6.66-8.05,10.01Z"/>
  <path class="cls-2" d="M180.83,212.26c4.58,4.23,10.33,6.72,17.23,7.52-3.32-5.65-4.99-12.75-6.19-19.88-4.48,3.75-8.78,8.26-11.05,12.36Z"/>
  <path class="cls-2" d="M198.07,219.78c6.2,1.42,12.6,1.96,19.15,1.79-3.38-6.41-6.15-13.33-7.48-18.23-4.3,4.21-8.1,10.52-11.66,16.44Z"/>
  <path class="cls-2" d="M217.21,221.57c5.87-.02,11.63-.87,17.28-2.52-1.52-4.41-4.1-9.22-7.42-13.13-2.7,5.26-5.95,10.95-9.86,15.65Z"/>
  <path class="cls-2" d="M234.5,219.05c6.58-1.36,12.67-4.03,18.07-8.51-3.38-3.44-7.18-7.04-9.47-7.69-2,5.06-4.27,10.99-8.6,16.2Z"/>
  <path class="cls-2" d="M252.57,210.54c5.01-3.26,8.88-7.67,11.81-13.04-1.03-1.25-2.56-2.63-4.08-2.71-2.02,4.91-4.67,10.63-7.72,15.75Z"/>
  <path class="cls-1" d="M379.84,139.85c-18.41-3.66-22.34-10.69-55.24-3.94l-10.44-30.39c30.26-10.63,62-4.57,80.09,6.02l-14.4,28.3Z"/>
  <path class="cls-1" d="M393.81,140.3c-14.76,8.66-55.86,42.36-80.3,69.12l-19.19-25.25c12-16.8,39.31-40.42,66.97-60.21l32.52,16.34Z"/>
  <path class="cls-1" d="M388.13,216c-26.12-6.08-51.91-8.33-77.02-5.99l-12.27-30.6c28.83-2.81,60.88-3,96.33,5.47l-7.04,31.13Z"/>
  <circle class="cls-1" cx="318.74" cy="120.94" r="16.08"/>
  <circle class="cls-1" cx="387.71" cy="125.82" r="15.71"/>
  <circle class="cls-1" cx="308.37" cy="193.42" r="16.81"/>
  <circle class="cls-1" cx="390.49" cy="200.17" r="16"/>
  <path class="cls-1" d="M473.01,150.37l-25.01,20.88c-13.82-10.16-20.91-25.53-30.07-45.43l27.92-14.92c12.57,27.93,18.69,33.88,27.17,39.47Z"/>
  <path class="cls-1" d="M472.74,177.08l-22.45-23.01c13.94-18.33,31.54-38.65,49.84-52.29l16.99,27.02c-19.46,13.77-31.67,28.15-44.38,48.27Z"/>
  <path class="cls-1" d="M470.44,218.42l-31.28,5.46c-2.95-15.08.27-39.61,4.73-63.91l32.97,4.25c-4.13,20.52-8.39,39.48-6.42,54.2Z"/>
  <circle class="cls-1" cx="454.76" cy="220.71" r="15.92"/>
  <circle class="cls-1" cx="508.22" cy="115.54" r="15.97"/>
  <circle class="cls-1" cx="432" cy="118.58" r="15.83"/>
</svg>